<svg width="12" height="37" fill="none" xmlns="http://www.w3.org/2000/svg"><g clip-path="url(#clip0)"><path d="M.71 24.907c.781.969 1.456 2.01 2.095 3.122.426.79 1.278 2.476 2.591 5.132 1.279 2.62 2.06 3.912 2.308 3.84l.178-.072.32-.43a114.17 114.17 0 011.88-8.004c.178-.61.356-1.256.498-1.937.07-.144.106-.288.142-.467.426-1.687.852-3.373 1.278-5.024v-.108c-.036-.107-.036-.215-.107-.287a.596.596 0 00-.177.072v.036c-.035.072-.035.107-.035.18a1.764 1.764 0 00-.107.25c.071-.43.142-.825.178-1.256l-.533-.143c-.178.18-.32.43-.426.646a57.444 57.444 0 00-2.272 7.141c0-3.48-.036-6.818-.178-9.905-.106-3.122-.213-6.029-.284-8.792.036-.395.036-.825.036-1.256-.036 0-.071-.036-.107-.072V6.066A43.428 43.428 0 007.562.79H7.42c-.07.108-.07.216-.106.36 0 .286-.036.61 0 .896l-.036.036a60.86 60.86 0 00-.106 3.625V8.29c0 .072 0 .18-.036.251V2.226c-.035-.036-.07-.036-.106-.072-.036.036-.071.036-.107.072 0 0 0 .036-.035.036 0 .072-.036.107-.071.143-.036.395-.036.79-.036 1.149-.07 1.65-.07 3.301-.07 4.952l-.107-3.301A83.605 83.605 0 006.32 0h-.142c0 .036-.036.072-.036.072-.071.394-.071.79-.106 1.148a52.875 52.875 0 00.07 5.311c.072.97.107 1.938.143 2.871-.036-.25-.036-.538-.071-.825 0 0-.036-.036-.036-.072h-.035A4.5 4.5 0 006 7.537a1.014 1.014 0 01-.178-.395l-.106.108v.072a.67.67 0 00-.071.251c.035.036.071.072.071.144v1.651c-.036.394-.071.789-.071 1.22 0 1.758.035 3.553.177 5.311a88.462 88.462 0 01.036 10.623c-.036.359-.071.79-.107 1.148a4.22 4.22 0 00-.177-.502 17.547 17.547 0 00-2.237-4.091c-.07.035-.106.035-.177.071.177.287.32.575.461.826.249.538.497 1.04.71 1.543-.39-.646-.887-1.22-1.42-1.759-.355-.358-.71-.681-1.1-1.005l-.604.431c.036.215.071.395.142.574a63.13 63.13 0 011.385 3.23c-.71-1.22-1.598-2.297-2.627-3.265L0 23.83c.213.359.462.718.71 1.077z" fill="#D3B498"/></g><defs><clipPath id="clip0"><path fill="#fff" transform="rotate(-180 6 18.5)" d="M0 0h12v37H0z"/></clipPath></defs></svg>