<svg width="17" height="17" fill="none" xmlns="http://www.w3.org/2000/svg"><path d="M12.968 3.126a.993.993 0 00-.995.995.994.994 0 101.989 0 .993.993 0 00-.994-.995zm-4.441 1.28a4.2 4.2 0 00-4.193 4.192 4.2 4.2 0 004.193 4.192 4.2 4.2 0 004.192-4.192 4.2 4.2 0 00-4.192-4.193zm0 6.892a2.68 2.68 0 01-2.683-2.683 2.68 2.68 0 012.683-2.682 2.68 2.68 0 012.682 2.682 2.691 2.691 0 01-2.682 2.683zM17 5.116A5.117 5.117 0 0011.884 0H5.116A5.117 5.117 0 000 5.116v6.768A5.117 5.117 0 005.116 17h6.75a5.117 5.117 0 005.116-5.116V5.116H17zm-1.617 6.75a3.525 3.525 0 01-3.517 3.518h-6.75a3.525 3.525 0 01-3.517-3.518v-6.75a3.503 3.503 0 013.517-3.517h6.75a3.525 3.525 0 013.518 3.517v6.75z" fill="#fff"/></svg>