<svg width="16" height="17" fill="none" xmlns="http://www.w3.org/2000/svg"><path d="M12.205 3.643a.935.935 0 00-.937.936c0 .518.418.936.937.936a.935.935 0 00.936-.936.935.935 0 00-.936-.936zm-4.18 1.203A3.953 3.953 0 004.08 8.792a3.953 3.953 0 003.946 3.946 3.953 3.953 0 003.946-3.946 3.953 3.953 0 00-3.946-3.946zm0 6.487A2.522 2.522 0 015.501 8.81a2.522 2.522 0 012.524-2.525A2.522 2.522 0 0110.55 8.81a2.533 2.533 0 01-2.525 2.524zM16 5.515A4.816 4.816 0 0011.185.7h-6.37A4.816 4.816 0 000 5.515v6.37A4.816 4.816 0 004.815 16.7h6.353a4.816 4.816 0 004.815-4.815v-6.37H16zm-1.521 6.353a3.318 3.318 0 01-3.31 3.31H4.814a3.318 3.318 0 01-3.31-3.31V5.515a3.296 3.296 0 013.31-3.31h6.353a3.318 3.318 0 013.31 3.31v6.353z" fill="#D3B498"/></svg>