<svg width="40" height="40" fill="none" xmlns="http://www.w3.org/2000/svg"><path d="M28.37 1.667H11.63c-5.494 0-9.964 4.47-9.964 9.963v16.74c0 5.494 4.47 9.963 9.964 9.963h16.74c5.494 0 9.963-4.47 9.963-9.963V11.63c0-5.494-4.47-9.963-9.963-9.963zM35 28.37A6.638 6.638 0 0128.37 35H11.63A6.638 6.638 0 015 28.37V11.63A6.638 6.638 0 0111.63 5h16.74A6.638 6.638 0 0135 11.63v16.74zM20 10c-5.514 0-10 4.486-10 10s4.486 10 10 10 10-4.486 10-10-4.486-10-10-10zm0 16.667A6.674 6.674 0 0113.333 20 6.674 6.674 0 0120 13.333 6.674 6.674 0 0126.666 20 6.674 6.674 0 0120 26.667zM30 8.333c-.919 0-1.667.748-1.667 1.667s.748 1.667 1.667 1.667 1.666-.748 1.666-1.667S30.92 8.333 30 8.333z" fill="url(#paint0_radial)"/><path d="M28.37 1.667H11.63c-5.494 0-9.964 4.47-9.964 9.963v16.74c0 5.494 4.47 9.963 9.964 9.963h16.74c5.494 0 9.963-4.47 9.963-9.963V11.63c0-5.494-4.47-9.963-9.963-9.963z" fill="url(#paint1_linear)"/><defs><radialGradient id="paint0_radial" cx="0" cy="0" r="1" gradientUnits="userSpaceOnUse" gradientTransform="translate(4.097 37.014) scale(44.6921)"><stop stop-color="#FFD35A"/><stop offset=".255" stop-color="#F7964C"/><stop offset=".6" stop-color="#F05B70"/><stop offset=".717" stop-color="#BD6186"/><stop offset=".853" stop-color="#85659B"/><stop offset=".951" stop-color="#5C66A9"/><stop offset="1" stop-color="#4766B0"/></radialGradient><linearGradient id="paint1_linear" x1=".889" y1="11.089" x2="39.11" y2="28.911" gradientUnits="userSpaceOnUse"><stop stop-color="#fff" stop-opacity=".2"/><stop offset="1" stop-color="#fff" stop-opacity="0"/></linearGradient></defs></svg>