<svg width="24" height="22" fill="none" xmlns="http://www.w3.org/2000/svg"><path d="M6.089.28L8.32 1.936c-.528.672-1.104 1.632-1.728 2.88-.576 1.248-1.08 2.64-1.512 4.176-.384 1.488-.504 2.952-.36 4.392a4.462 4.462 0 011.728-.36c1.056 0 1.944.36 2.664 1.08.768.672 1.152 1.608 1.152 2.808 0 1.392-.408 2.52-1.224 3.384-.816.816-1.848 1.224-3.096 1.224-1.872 0-3.288-.648-4.248-1.944-.912-1.344-1.368-3-1.368-4.968 0-1.296.216-2.808.648-4.536a28.872 28.872 0 012.016-5.184C3.857 3.16 4.889 1.624 6.089.28zm13.248 0l2.232 1.656c-.528.672-1.104 1.632-1.728 2.88-.576 1.248-1.08 2.64-1.512 4.176-.384 1.488-.504 2.952-.36 4.392a4.462 4.462 0 011.728-.36c1.056 0 1.944.36 2.664 1.08.768.672 1.152 1.608 1.152 2.808 0 1.392-.408 2.52-1.224 3.384-.816.816-1.848 1.224-3.096 1.224-1.872 0-3.288-.648-4.248-1.944-.912-1.344-1.368-3-1.368-4.968 0-1.296.216-2.808.648-4.536a28.872 28.872 0 012.016-5.184c.864-1.728 1.896-3.264 3.096-4.608z" fill="#30353B"/></svg>