<svg width="48" height="48" fill="none" xmlns="http://www.w3.org/2000/svg"><path d="M28.807 28.797l-4.8-4.8-4.8 4.8" stroke="#D3B498" stroke-width="2" stroke-linecap="round" stroke-linejoin="round"/><path fill-rule="evenodd" clip-rule="evenodd" d="M24.005 22.797a1.2 1.2 0 011.2 1.2v10.8a1.2 1.2 0 11-2.4 0v-10.8a1.2 1.2 0 011.2-1.2z" fill="#D3B498"/><path fill-rule="evenodd" clip-rule="evenodd" d="M20 12.007a10.8 10.8 0 0110.579 7.19h.625A7.202 7.202 0 0137.8 29.275a7.2 7.2 0 01-3.154 3.444 1.2 1.2 0 11-1.148-2.108 4.799 4.799 0 00-2.295-9.014h-1.51a1.2 1.2 0 01-1.163-.9 8.4 8.4 0 10-14.427 7.665 1.2 1.2 0 01-1.798 1.59A10.8 10.8 0 0120 12.007z" fill="#D3B498"/><path fill-rule="evenodd" clip-rule="evenodd" d="M23.16 23.149a1.2 1.2 0 011.696 0l4.8 4.8a1.2 1.2 0 11-1.697 1.697l-3.951-3.952-3.952 3.952a1.2 1.2 0 11-1.697-1.697l4.8-4.8z" fill="#D3B498"/></svg>