<svg width="62" height="72" fill="none" xmlns="http://www.w3.org/2000/svg"><g clip-path="url(#clip0)"><path d="M23.26 41.211h.046c.018 0 .059-.005.118-.005.764-.095 1.992-.923 1.992-.923 1.028-.717 1.692-.3 1.692-.3.359.182.723.3.723.3s.37-.118.723-.3c0 0 .67-.417 1.692.3 0 0 1.228.828 1.992.923.06.005.1.005.118.005h.047l-.077.018c-.317.2-1.598 1.863-1.598 1.863-.823 1.105-2.903.987-2.903.987s-2.08.118-2.903-.987c0 0-1.28-1.657-1.598-1.863a.23.23 0 01-.065-.018z" fill="#614F71"/><path d="M27.32 49.62s6.88-.857 3.355 7.975c0 0 6.153-11.7 6.805-15.62 0-.006-1.734 4.443-10.16 7.646zm.886-11.664s.565-.4.83-.764c.24-.323.728-.153.81 0 .065.124-.03.312-.494.547 0 0-.458.217-1.146.217zm-.916 0s-.8-1.087-1.51-.646c.005 0 .622-.194 1.51.646zm-9.831-8.433c-.753.153-1.804-.723-1.804-.723 1.14.412 1.704.135 1.862.035-1.21-1.592-1.64-3.578-1.64-3.578s4.373-.805 7.417 2.48c0 0-1.258-.988-3.42-1.193-.347-.035-2.333-.188-1.67 1.151.365.735 1.159 1.446 2.146 1.687 2.068.517 3.467-.576 3.467-.576-.041.053-.076.106-.118.159.077-.1.118-.159.118-.159-.241.605-1.363 1.58-1.363 1.58-3.197 2.528-5.542.16-6.423-1.01.675.37 1.428.147 1.428.147zm8.174-5.241s-6.276-4.69-9.755-1.305c0 0 2.374-2.086 9.414 3.038 0 .006.764-.429.341-1.733zM7.522 44.22c.082.077.129.112.129.112-.047-.035-.088-.077-.13-.112z" fill="#30353B"/><path d="M22.753 45.684c-3.737-4.69-14.133-13.657-1.416-38.715 0 0-29.635 14.527-19.052 26.88 0 0-4.13-6.882 18.899-26.744C18.922 9.079-6.811 32.027 7.527 44.22c-.764-.7-4.507-4.842.13-15.995-4.36 11.993 1.745 17.212 5.823 22.095 7.457 8.92-3.073 7.422-3.073 7.422 10.037 1.48 10.989-2.18 9.161-6.723 2.844 2.886 11.753 13.728-.4 14.333-.011 0 20.709 1.804 3.585-19.669z" fill="#30353B"/><path d="M19.386 2.562c-1.47-.159-3.973.858-8.221 4.525 0 0 14.526-15.332 10.26-.887C18.405 2.697 5.77 16.748 5.77 16.748 13.44 6.058 17.376 2.856 19.386 2.562zm2.033 3.62zm5.007 4.807c.112 16.054 7.604 15.455 12.728 15.032C65 23.888 63.394 35.54 58.57 42.927c0 0 3.496-8.485-13.222-10.4 21.408 6.34 5.095 20.508 5.095 20.508C57.9 41.047 39.918 35.059 39.918 35.059c21.684 11.283 3.127 27.378 3.127 27.378 4.953-5.741 5.1-10.836 3.35-14.955.875 3.408.146 7.868-4.62 13.322-1.087 1.245-8.744 7.874 2.88 10.518 0 0-16.449-2.115-6.54-15.63 3.372-4.596 4.024-12.577-3.162-17.325-8.557-5.659-9.027-12.334-9.162-18.851-.082-4.084.635-8.527.635-8.527z" fill="#30353B"/></g><defs><clipPath id="clip0"><path fill="#fff" transform="matrix(-1 0 0 1 61.42 0)" d="M0 0h61.42v71.322H0z"/></clipPath></defs></svg>